<svg id="Capa_1" enable-background="new 0 0 512 512" height="512" viewBox="0 0 512 512" width="512" xmlns="http://www.w3.org/2000/svg"><g><g><g><g><path d="m399.393 33.005c-23.044 0-41.724 18.681-41.724 41.724v90.971c0 6.105-4.967 11.072-11.072 11.072h-48.872v-127.548c0-23.043-18.681-41.724-41.725-41.724-23.044 0-41.724 18.681-41.724 41.724v210.997h-48.872c-6.105 0-11.072-4.967-11.072-11.072v-117.048c0-23.044-18.68-41.725-41.724-41.725s-41.725 18.681-41.725 41.725v117.049c0 52.119 42.402 94.521 94.521 94.521h48.872v160.829h83.449v-244.278h48.872c52.119 0 94.521-42.402 94.521-94.521v-90.972c-.001-23.043-18.681-41.724-41.725-41.724z" fill="#a3e440"/><g fill="#99d53b"><path d="m148.19 112.11c0 11.92-9.67 21.59-21.6 21.59-11.92 0-21.59-9.67-21.59-21.59 0-10.01 6.81-18.43 16.04-20.88 11.41 2.34 21.12 9.34 27.06 18.93.06.64.09 1.29.09 1.95z"/><path d="m441.12 74.73v90.97c0 52.12-42.4 94.52-94.52 94.52h-35.52c52.12 0 94.52-42.4 94.52-94.52v-90.97c0-16.69-9.8-31.1-23.96-37.77 5.39-2.54 11.4-3.96 17.75-3.96 23.05 0 41.73 18.69 41.73 41.73z"/><path d="m297.72 49.968v126.802h-25.51c-5.523 0-10-4.477-10-10v-117.55c0-16.69-9.8-31.09-23.97-37.76 5.596-2.637 11.871-4.067 18.489-3.954 22.88.391 40.991 19.579 40.991 42.462z"/><path d="m297.72 260.22v244.28h-35.51v-234.28c0-5.523 4.477-10 10-10z"/></g></g><g><circle cx="126.593" cy="92.133" fill="#a8e7ef" r="21.595"/><path d="m148.187 92.13c0 11.931-9.671 21.602-21.593 21.602-3.997 0-7.747-1.086-10.954-2.99 8.477-1.954 14.793-9.543 14.793-18.612 0-9.06-6.306-16.658-14.783-18.612 3.207-1.895 6.947-2.98 10.944-2.98 11.922 0 21.593 9.671 21.593 21.592z" fill="#70d9e6"/></g><g><circle cx="363.915" cy="317.646" fill="#64b9fc" r="22.239"/><path d="m386.152 317.644c0 12.287-9.96 22.246-22.236 22.246-4.116 0-7.978-1.118-11.281-3.079 8.73-2.012 15.234-9.827 15.234-19.167 0-9.33-6.494-17.155-15.224-19.167 3.303-1.951 7.155-3.069 11.271-3.069 12.277-.001 22.236 9.959 22.236 22.236z" fill="#31a7fb"/></g></g><g><circle cx="256.001" cy="164.913" fill="#8dcafc" r="74.042"/><path d="m330.043 164.911c0 40.894-33.152 74.046-74.037 74.046-4.971 0-9.829-.489-14.527-1.428 33.932-6.756 59.5-36.704 59.5-72.618s-25.568-65.852-59.5-72.608c4.698-.94 9.556-1.428 14.527-1.428 40.885-.001 74.037 33.141 74.037 74.036z" fill="#64b9fc"/></g></g><g><path d="m399.393 25.505c-27.143 0-49.225 22.082-49.225 49.225v90.971c0 1.97-1.603 3.572-3.572 3.572h-9.172c.076-1.444.119-2.897.119-4.36 0-26.484-12.699-50.05-32.319-64.955v-50.733c0-27.143-22.082-49.225-49.224-49.225s-49.224 22.082-49.224 49.225v50.734c-14.007 10.612-24.605 25.71-29.447 43.513-1.087 3.997 1.272 8.118 5.27 9.206 3.988 1.088 8.117-1.271 9.205-5.269 7.852-28.873 34.251-49.037 64.198-49.037 36.691 0 66.542 29.851 66.542 66.542s-29.851 66.542-66.542 66.542c-30.792 0-57.374-20.874-64.644-50.761-.979-4.024-5.027-6.494-9.06-5.515-4.024.979-6.494 5.035-5.515 9.06 4.579 18.829 15.421 34.725 29.992 45.743v22.741h-41.372c-1.97 0-3.572-1.603-3.572-3.572v-117.051c0-10.134-3.016-19.748-8.735-27.986 1.66-3.657 2.592-7.711 2.592-11.981 0-16.043-13.053-29.095-29.096-29.095-13.573 0-25.003 9.344-28.201 21.936-20.487 6.195-35.01 25.454-35.01 47.127v117.048c0 19.688 5.648 38.817 16.336 55.319 1.436 2.217 3.844 3.424 6.302 3.424 1.396 0 2.811-.39 4.07-1.206 3.477-2.251 4.47-6.895 2.218-10.372-9.11-14.068-13.926-30.377-13.926-47.165v-117.049c0-13.653 8.286-25.926 20.43-31.316 3.692 11.831 14.75 20.444 27.781 20.444 6.049 0 11.671-1.857 16.331-5.029 2.566 4.866 3.908 10.267 3.908 15.901v117.049c0 10.241 8.331 18.572 18.572 18.572h48.872c4.143 0 7.5-3.358 7.5-7.5v-21.255c8.289 3.819 17.296 6.282 26.725 7.139v22.937h-5.187c-4.143 0-7.5 3.358-7.5 7.5s3.357 7.5 7.5 7.5h5.187v12.895h-5.187c-4.143 0-7.5 3.358-7.5 7.5s3.357 7.5 7.5 7.5h5.187v192.562c0 4.142 3.357 7.5 7.5 7.5s7.5-3.358 7.5-7.5v-59.544h5.186c4.143 0 7.5-3.358 7.5-7.5s-3.357-7.5-7.5-7.5h-5.186v-21.966h5.186c4.143 0 7.5-3.358 7.5-7.5s-3.357-7.5-7.5-7.5h-5.186v-146.894c9.467-.868 18.465-3.362 26.724-7.198v87.266c0 4.142 3.357 7.5 7.5 7.5s7.5-3.358 7.5-7.5v-58.442h41.372c56.255 0 102.021-45.767 102.021-102.021v-90.972c.001-27.142-22.081-49.224-49.224-49.224zm-177.617 23.72c0-18.872 15.352-34.225 34.224-34.225s34.225 15.353 34.225 34.225v41.702c-8.259-3.836-17.257-6.33-26.724-7.198v-22.525c0-4.142-3.357-7.5-7.5-7.5s-7.5 3.358-7.5 7.5v22.524c-9.401.87-18.415 3.362-26.725 7.219zm-95.183 57.003c-7.771 0-14.095-6.323-14.095-14.095s6.323-14.095 14.095-14.095 14.096 6.323 14.096 14.095-6.323 14.095-14.096 14.095zm307.025 59.473c0 47.983-39.038 87.021-87.021 87.021h-41.372v-22.854c1.351-1.026 2.662-2.102 3.945-3.208h37.239c14.874 0 28.535-5.287 39.206-14.079l4.214 4.214c1.465 1.464 3.385 2.197 5.304 2.197s3.839-.732 5.304-2.197c2.929-2.929 2.929-7.678 0-10.606l-4.475-4.475c7.659-10.285 12.199-23.024 12.199-36.804v-82.36c0-4.142-3.357-7.5-7.5-7.5s-7.5 3.358-7.5 7.5v13.983h-5.186c-4.143 0-7.5 3.358-7.5 7.5s3.357 7.5 7.5 7.5h5.186v8.919h-5.186c-4.143 0-7.5 3.358-7.5 7.5s3.357 7.5 7.5 7.5h5.186v29.456c0 25.779-20.973 46.751-46.751 46.751h-23.654c5.734-8.164 10.01-17.415 12.448-27.387h11.394c10.241 0 18.572-8.331 18.572-18.572v-90.971c0-18.872 15.354-34.225 34.225-34.225s34.225 15.353 34.225 34.225v90.972z"/><path d="m297.724 355.69c-4.143 0-7.5 3.358-7.5 7.5v141.31c0 4.142 3.357 7.5 7.5 7.5s7.5-3.358 7.5-7.5v-141.31c0-4.142-3.357-7.5-7.5-7.5z"/><path d="m214.276 295.108h-48.684c-23.397 0-42.832-17.277-46.224-39.743h4.659c4.143 0 7.5-3.358 7.5-7.5s-3.357-7.5-7.5-7.5h-5.186v-29.789h5.186c4.143 0 7.5-3.358 7.5-7.5s-3.357-7.5-7.5-7.5h-5.186v-57.374c0-4.142-3.357-7.5-7.5-7.5s-7.5 3.358-7.5 7.5v8.337h-5.187c-4.143 0-7.5 3.358-7.5 7.5s3.357 7.5 7.5 7.5h5.187v60.327h-5.187c-4.143 0-7.5 3.358-7.5 7.5s3.357 7.5 7.5 7.5h5.187v11.49c0 34.05 27.701 61.751 61.751 61.751h41.184v26.063h-41.372c-17.712 0-34.771-5.318-49.333-15.38-3.41-2.355-8.08-1.5-10.434 1.907-2.355 3.408-1.501 8.079 1.906 10.434 17.08 11.802 37.088 18.04 57.86 18.04h41.372v153.329c0 4.142 3.357 7.5 7.5 7.5s7.5-3.358 7.5-7.5v-201.892c.001-4.142-3.357-7.5-7.499-7.5z"/><path d="m188.676 377.057c-2.93-2.929-7.678-2.93-10.607 0l-3.995 3.995-3.995-3.995c-2.93-2.929-7.678-2.929-10.607 0s-2.929 7.678 0 10.606l3.995 3.995-3.995 3.995c-2.929 2.929-2.929 7.677 0 10.606 1.465 1.465 3.384 2.197 5.304 2.197 1.919 0 3.839-.732 5.304-2.197l3.995-3.995 3.995 3.995c1.465 1.464 3.385 2.197 5.304 2.197s3.839-.732 5.304-2.197c2.929-2.929 2.929-7.678 0-10.606l-3.995-3.995 3.995-3.995c2.927-2.929 2.927-7.677-.002-10.606z"/><path d="m430.668 271.24c-2.93-2.929-7.678-2.929-10.607 0l-3.995 3.995-3.995-3.995c-2.93-2.929-7.678-2.929-10.607 0s-2.929 7.678 0 10.606l3.996 3.995-3.996 3.995c-2.929 2.929-2.929 7.677 0 10.606 1.465 1.465 3.384 2.197 5.304 2.197 1.919 0 3.839-.732 5.304-2.197l3.995-3.995 3.995 3.995c1.465 1.464 3.385 2.197 5.304 2.197s3.839-.732 5.304-2.197c2.929-2.929 2.929-7.678 0-10.606l-3.996-3.995 3.996-3.995c2.927-2.929 2.927-7.677-.002-10.606z"/><path d="m146.24 49.91c1.465 1.464 3.385 2.197 5.304 2.197s3.839-.732 5.304-2.197l5.961-5.962 5.961 5.962c1.465 1.465 3.384 2.197 5.304 2.197 1.919 0 3.839-.732 5.304-2.197 2.929-2.929 2.929-7.678 0-10.606l-5.962-5.962 5.962-5.962c2.929-2.929 2.929-7.678 0-10.606-2.93-2.929-7.678-2.929-10.607 0l-5.961 5.962-5.961-5.962c-2.929-2.929-7.677-2.93-10.607 0-2.929 2.929-2.929 7.678 0 10.606l5.962 5.962-5.962 5.962c-2.931 2.928-2.931 7.677-.002 10.606z"/><path d="m363.915 287.907c-16.397 0-29.738 13.341-29.738 29.739s13.341 29.739 29.738 29.739c16.398 0 29.739-13.341 29.739-29.739s-13.341-29.739-29.739-29.739zm0 44.478c-8.127 0-14.738-6.612-14.738-14.739s6.611-14.739 14.738-14.739 14.739 6.612 14.739 14.739-6.612 14.739-14.739 14.739z"/><path d="m244.419 192.594c2.723-2.297 6.609-3.611 10.67-3.611h.056c4.081.012 7.982 1.352 10.705 3.676 1.413 1.206 3.144 1.795 4.865 1.795 2.119 0 4.226-.893 5.709-2.631 2.688-3.15 2.314-7.884-.836-10.573-5.463-4.663-12.707-7.243-20.398-7.267-.034 0-.068 0-.103 0-7.654 0-14.874 2.536-20.34 7.146-3.166 2.67-3.567 7.402-.897 10.568 2.672 3.166 7.4 3.567 10.569.897z"/><path d="m289.703 164.87c.193.04.39.068.588.094.056.007.11.019.166.025.147.016.298.019.448.025.103.005.204.017.308.018h.049c4.12 0 7.473-3.327 7.499-7.453.023-3.641-2.553-6.69-5.989-7.393-.042-.009-.085-.012-.126-.02-.201-.037-.403-.072-.609-.093-.093-.01-.188-.01-.281-.016-.149-.01-.296-.024-.447-.025h-.077c-.017 0-.032 0-.049 0-.258 0-.513.013-.765.039-3.782.38-6.704 3.576-6.704 7.462 0 3.604 2.572 6.612 5.969 7.333.007 0 .013.003.02.004z"/><path d="m228.318 157.532c0-4.142-3.357-7.5-7.5-7.5h-.076c-4.143 0-7.462 3.358-7.462 7.5s3.396 7.5 7.538 7.5 7.5-3.358 7.5-7.5z"/></g></g></svg>