<?xml version="1.0" encoding="iso-8859-1"?>
<!-- Generator: Adobe Illustrator 21.0.0, SVG Export Plug-In . SVG Version: 6.00 Build 0)  -->
<svg xmlns="http://www.w3.org/2000/svg" xmlns:xlink="http://www.w3.org/1999/xlink" version="1.1" id="Capa_1" x="0px" y="0px" viewBox="0 0 512 512" style="enable-background:new 0 0 512 512;" xml:space="preserve" width="512" height="512">
<g>
	<path d="M256.024,356.661c-15.132,11.517-46.374,39.999-46.374,78.805c0,25.619,20.792,46.462,46.35,46.462   s46.35-20.843,46.35-46.462C302.35,398.715,271.09,368.895,256.024,356.661z"/>
	<path d="M364.632,89.113c-5.621-6.357-15.323-6.742-21.444-1.028l-70.585,65.879V15.999c0-11.549-13.925-20.178-24.353-13.87   c-1.974,1.194-48.882,29.838-96.279,81.855c-57.629,63.248-96.878,140.257-96.878,226.621C55.093,421.655,145.22,512,256,512   c-42.1,0-76.35-34.334-76.35-76.535c0-68.192,66.208-108.571,69.026-110.257c4.94-2.953,11.125-2.815,15.929,0.35   c2.766,1.824,67.744,45.407,67.744,109.906C332.35,477.666,298.1,512,256,512c110.78,0,200.907-90.345,200.907-201.395   C456.907,226.751,419.905,151.592,364.632,89.113z"/>
</g>















</svg>
