<?xml version="1.0" encoding="iso-8859-1"?>
<!-- Generator: Adobe Illustrator 19.0.0, SVG Export Plug-In . SVG Version: 6.00 Build 0)  -->
<svg version="1.1" id="Capa_1" xmlns="http://www.w3.org/2000/svg" xmlns:xlink="http://www.w3.org/1999/xlink" x="0px" y="0px"
	 viewBox="0 0 512 512" style="enable-background:new 0 0 512 512;" xml:space="preserve">
<g>
	<g>
		<path d="M437.397,45.568c-3.733-2.176-92.16-52.459-191.317-0.448c-61.035,32.043-116.843,15.061-139.413,5.504V21.333
			C106.667,9.557,97.131,0,85.333,0C73.536,0,64,9.557,64,21.333V64v213.739v212.928C64,502.464,73.536,512,85.333,512
			c11.797,0,21.333-9.536,21.333-21.333V309.653c16.832,5.419,39.168,10.453,65.195,10.432c28.203,0,60.544-5.867,94.059-23.445
			c77.589-40.789,146.987-2.219,150.08-0.427c6.549,3.776,14.677,3.819,21.291,0.021c6.635-3.819,10.709-10.859,10.709-18.496V64
			C448,56.427,443.968,49.387,437.397,45.568z"/>
	</g>
</g>
<g>
</g>
<g>
</g>
<g>
</g>
<g>
</g>
<g>
</g>
<g>
</g>
<g>
</g>
<g>
</g>
<g>
</g>
<g>
</g>
<g>
</g>
<g>
</g>
<g>
</g>
<g>
</g>
<g>
</g>
</svg>
