<svg id="Capa_1" enable-background="new 0 0 512.004 512.004" height="512" viewBox="0 0 512.004 512.004" width="512" xmlns="http://www.w3.org/2000/svg"><g><path d="m184.003 359.004c-61.206 0-111-49.794-111-111 0-46.55 0 54.596 0-48 0-8.498 7.029-15.196 15.322-15 61.057.177 110.678 49.902 110.678 111v48c0 8.284-6.716 15-15 15z" fill="#abe135"/><path d="m312.023 298.936c28.118 28.117 73.706 28.117 101.823 0 28.118-28.118 28.118-73.706 0-101.823.007-.104.868.867-10.606-10.606l-101.823 101.823z" fill="#e1785a"/><path d="m301.417 309.542c33.921 33.922 89.115 33.922 123.037 0 33.921-33.922 33.921-89.115 0-123.037-5.857-5.857-15.354-5.86-21.213 0l-10.606 10.607 10.605 10.605c22.225 22.225 22.225 58.387 0 80.611-22.225 22.223-58.386 22.223-80.61 0l-10.606-10.606-10.607 10.606c-5.858 5.859-5.858 15.357 0 21.214z" fill="#dc4628"/><circle cx="256.003" cy="288.004" fill="#e1785a" r="72"/><path d="m328.003 288.004c0 39.76-32.24 72-72 72v-144c39.76 0 72 32.24 72 72z" fill="#dc4628"/><path d="m256.003 201.004c-47.97 0-87 39.03-87 87s39.03 87 87 87 87-39.03 87-87-39.03-87-87-87zm0 144c-31.43 0-57-25.57-57-57s25.57-57 57-57 57 25.57 57 57-25.57 57-57 57z" fill="#dc4628"/><path d="m343.003 288.004c0 47.97-39.03 87-87 87v-30c31.43 0 57-25.57 57-57s-25.57-57-57-57v-30c47.97 0 87 39.03 87 87z" fill="#bd2e0b"/><path d="m162.914 53.092c-28.118-28.117-73.706-28.117-101.823 0-28.118 28.118-28.118 73.706 0 101.823-.007.104-.868-.867 10.606 10.606l101.824-101.823z" fill="#e1785a"/><path d="m173.521 42.485c-33.921-33.922-89.115-33.922-123.037 0-33.921 33.922-33.921 89.115 0 123.037 5.857 5.857 15.354 5.86 21.213 0l10.606-10.607-10.605-10.605c-22.225-22.225-22.225-58.387 0-80.611 22.225-22.223 58.386-22.223 80.61 0l10.606 10.606 10.607-10.606c5.858-5.858 5.858-15.356 0-21.214z" fill="#dc4628"/><path d="m336.003 174.004c-8.284 0-15-6.716-15-15v-48c0-61.098 49.621-110.823 110.678-111 8.79-.194 15.973 7.253 15.276 16.176-.028 19.695.045-24.985.045 46.824.001 61.206-49.794 111-110.999 111z" fill="#8ac52e"/><path d="m192.003 135.004c-8.241 0-15-6.7-15-15 0-8.91 7.776-15.813 16.48-14.92 8.012.668 14.3 8.107 13.45 16.399-.804 7.755-7.318 13.521-14.93 13.521z" fill="#555578"/><path d="m280.003 151.004c-8.24 0-15-6.733-15-15 0-8.588 7.356-15.767 16.48-14.931 8.419.891 14.278 8.338 13.45 16.41-.818 7.885-7.418 13.521-14.93 13.521z" fill="#414164"/><path d="m224.003 191.004c-12.593 0-19.615-14.666-11.6-24.511 2.393-2.932 5.979-4.99 10.13-5.42 8.447-.857 15.747 5.606 16.39 13.46.894 8.801-6.087 16.471-14.92 16.471z" fill="#555578"/><path d="m144.003 167.004c-12.604 0-19.607-14.675-11.6-24.511 7.158-8.77 21.986-6.974 25.95 5.15 2.914 9.802-4.42 19.361-14.35 19.361z" fill="#555578"/><path d="m256.003.004c-25.92 0-47 21.08-47 47s21.08 47 47 47 47-21.08 47-47-21.08-47-47-47z" fill="#f6e178"/><path d="m303.003 47.004c0 25.92-21.08 47-47 47v-94c25.92 0 47 21.08 47 47z" fill="#ebb354"/><path d="m481.943 272.764h-451.88c-9.62 0-16.83 8.98-14.6 18.44 18.752 79.469 56.373 153.973 109.15 215.56 2.85 3.33 7.01 5.24 11.39 5.24h240c4.38 0 8.54-1.91 11.39-5.24 52.382-61.121 90.253-135.516 109.15-215.56 2.22-9.42-4.95-18.44-14.6-18.44z" fill="#eaeaf4"/><path d="m481.943 272.764h-225.94v239.24h120c4.38 0 8.54-1.91 11.39-5.24 52.382-61.121 90.253-135.516 109.15-215.56 2.22-9.42-4.95-18.44-14.6-18.44z" fill="#d1d1e0"/><path d="m33.833 352.004c21.33 57.38 52.14 109.67 90.78 154.76 2.85 3.33 7.01 5.24 11.39 5.24h240c4.38 0 8.54-1.91 11.39-5.24 38.72-45.18 69.5-97.53 90.78-154.76z" fill="#d1d1e0"/><path d="m478.173 352.004c-21.28 57.23-52.06 109.58-90.78 154.76-2.85 3.33-7.01 5.24-11.39 5.24h-120v-160z" fill="#b8b8c7"/></g></svg>