<svg id="flat" height="512" viewBox="0 0 512 512" width="512" xmlns="http://www.w3.org/2000/svg"><path d="m416 243.818c40 8 48 16 48 16h40v88h-32s-8 128-216 128-208-128-208-128h-40v-88h40s32-32 128-40" fill="#f23f00"/><g opacity=".3"><path d="m179.856 220.2-3.856-.382c-96 8-128 40-128 40h-40v88h40s.009 126.756 205 127.982c-140.852-68.15-89.348-217.145-73.144-255.6z" fill="#f9f8f7"/></g><ellipse cx="256" cy="299.5" fill="#6d410b" rx="192" ry="88.5"/><path d="m315 378c-106.039 0-192-39.623-192-88.5 0-32.967 39.111-61.721 97.109-76.95-88.882 7.75-156.109 43.728-156.109 86.95 0 48.877 85.961 88.5 192 88.5 34.517 0 66.9-4.2 94.891-11.55-11.629 1.013-23.623 1.55-35.891 1.55z" fill="#472807"/><path d="m8 275.818h32v16h-32z" fill="#cc380a"/><path d="m8 307.818h32v16h-32z" fill="#cc380a"/><path d="m472 275.818h32v16h-32z" fill="#cc380a"/><path d="m472 307.818h32v16h-32z" fill="#cc380a"/><path d="m276.594 42.341c18.745-18.745 20.853 9.539 39.6 28.284s47.029 20.853 28.284 39.6a48 48 0 0 1 -67.882-67.882z" fill="#9b5e15"/><circle cx="156" cy="127.818" fill="#79c143" r="20"/><path d="m200 171.818c-19.712 0-36.775-24.741-38.656-27.562l13.307-8.883c4.473 6.671 16.553 20.446 25.35 20.446z" fill="#79c143"/><path d="m136 243.818h16v16h-16z" fill="#79c143"/><g fill="#d38f29"><path d="m208 99.818h16v16h-16z"/><path d="m128 187.818h16v16h-16z"/><path d="m384 139.818h16v16h-16z"/><path d="m248 131.818h16v16h-16z"/><path d="m368 43.818h16v16h-16z"/></g><path d="m184 347.818h16v16h-16z" fill="#79c143"/><path d="m408 291.818h16v16h-16z" fill="#79c143"/><path d="m352 339.818h16v16h-16z" fill="#79c143"/><path d="m240 227.818-8-48 56-8 8 64-32 8z" fill="#bcbbbb"/><path d="m336 155.818 48 32v8l-38.331 60-50.669-28-.624-4.99z" fill="#d38f29"/><path d="m311.799 52.019h30v16h-30z" fill="#6d410b" transform="matrix(.707 -.707 .707 .707 53.286 248.673)"/><path d="m141.029 427.246c-42.951-17.18-52.244-43.774-52.619-44.9l7.59-2.53 7.56-2.618c.019.052 1.934 5.253 8.147 12.121 5.8 6.408 16.622 15.612 35.264 23.069z" fill="#cc380a"/><path d="m296 283.818v-16a134.838 134.838 0 0 0 51.466-10.177l7.112 14.332c-.723.361-25.078 11.845-58.578 11.845z" fill="#fff"/><path d="m304 259.818v-16c8.8 0 20.877-13.775 25.35-20.446l13.307 8.883c-1.882 2.822-18.945 27.563-38.657 27.563z" fill="#fff"/><path d="m344.483 307.412c-5.832-1.921-26.289-5.746-36.905-.438l-7.156-14.311c18.747-9.373 48-.8 49.108-.434z" fill="#fff"/><path d="m386.53 275.407-5.061-15.179c17.707-5.9 18.509-16.192 18.534-16.627-.008.142 1-4.6 1-4.6l16 2c-.003.888-1.003 25.999-30.473 34.406z" fill="#fff"/><circle cx="348" cy="215.818" fill="#bcbbbb" r="20"/><circle cx="364" cy="263.818" fill="#bcbbbb" r="20"/><circle cx="364" cy="303.818" fill="#bcbbbb" r="20"/><circle cx="412" cy="223.818" fill="#bcbbbb" r="20"/><path d="m280.318 73.752-9.718 29.163a48.163 48.163 0 0 0 13.3 13.305l29.162-9.721-5.062-15.179-18.761 6.254 6.261-18.762z" fill="#6d410b"/><path d="m238.742 275.818h-106.673a16 16 0 0 0 -15.384 11.6l-6.857 24a16 16 0 0 0 15.384 20.4h117.971a17.637 17.637 0 0 0 17.245-21.332l-4.441-20.726a17.637 17.637 0 0 0 -17.245-13.942z" fill="#d38f29"/><path d="m168 291.818h80v16h-80z" fill="#9b5e15"/><path d="m115 291.818h29v16h-29z" fill="#9b5e15"/><path d="m328 339.818c0 26.51-21.49 8-48 8s-48 18.51-48-8a48 48 0 1 1 96 0z" fill="#9b5e15"/><path d="m288.845 327.4 14.311-7.155-13.747-27.495a48.168 48.168 0 0 0 -18.816 0l-13.748 27.49 14.311 7.155 8.844-17.688z" fill="#6d410b"/><path d="m176 251.818 70 48 34-48-72-48z" fill="#dddcdb"/></svg>