<?xml version="1.0" standalone="no"?>
<!DOCTYPE svg PUBLIC "-//W3C//DTD SVG 20010904//EN"
 "http://www.w3.org/TR/2001/REC-SVG-20010904/DTD/svg10.dtd">
<svg version="1.0" xmlns="http://www.w3.org/2000/svg"
 width="1600.000000pt" height="1011.000000pt" viewBox="0 0 1600.000000 1011.000000"
 preserveAspectRatio="xMidYMid meet">

<g transform="translate(0.000000,1011.000000) scale(0.100000,-0.100000)"
fill="#000000" stroke="none">
<path d="M7518 6788 c-305 -35 -515 -340 -443 -646 42 -179 183 -331 356 -383
80 -24 74 -5 59 -198 -8 -106 -13 -126 -30 -138 -11 -8 -20 -23 -20 -34 0 -20
-15 -26 -25 -9 -10 17 -51 11 -70 -10 -13 -14 -16 -28 -11 -53 5 -29 3 -35
-13 -40 -29 -7 -42 -39 -27 -68 7 -13 20 -23 29 -23 22 2 22 -12 0 -25 -10 -6
-13 -11 -7 -11 18 0 30 22 31 55 0 17 -1 22 -4 12 -7 -26 -38 -17 -36 11 2 39
3 42 17 42 23 0 38 24 23 39 -9 9 -9 14 3 21 8 5 18 6 24 3 5 -3 6 -1 2 6 -4
6 -12 9 -17 6 -11 -8 -11 6 0 24 7 11 11 9 20 -8 7 -11 19 -20 29 -20 15 1 15
2 0 6 -9 2 -19 12 -23 21 -5 14 -4 15 6 5 21 -21 59 -16 59 6 0 11 5 23 10 26
6 4 10 -7 10 -27 0 -30 5 -35 45 -51 25 -11 45 -23 45 -28 0 -5 7 -9 15 -9 9
0 15 9 15 25 0 14 4 25 10 25 5 0 7 7 4 15 -4 8 -2 15 4 15 5 0 15 -7 22 -15
7 -8 20 -15 29 -15 14 0 14 -2 1 -10 -20 -13 -43 -13 -35 0 3 6 -1 7 -10 4
-23 -9 -9 -18 30 -19 20 -1 32 2 28 8 -4 6 1 8 11 4 10 -4 19 -7 21 -7 2 0 1
-9 -2 -20 -3 -12 0 -20 7 -20 7 0 10 7 6 15 -10 27 9 16 33 -20 21 -31 23 -42
17 -92 -5 -45 -3 -59 11 -75 12 -13 13 -18 4 -16 -7 2 -15 -2 -18 -8 -2 -7 5
-10 20 -7 35 7 69 -14 65 -39 -2 -12 3 -23 12 -25 13 -4 13 -3 0 6 -11 8 -12
11 -2 11 7 0 10 4 7 10 -3 6 1 7 9 4 9 -3 14 -11 13 -17 -1 -7 8 -11 23 -8 24
3 24 2 8 -15 -13 -16 -14 -21 -2 -31 17 -16 32 -17 16 -1 -7 7 -12 15 -12 18
0 11 34 8 50 -5 8 -7 29 -16 45 -20 l30 -7 -24 -19 c-13 -10 -20 -19 -15 -19
4 0 15 7 25 16 14 12 22 13 38 4 12 -6 21 -15 21 -21 0 -6 4 -8 9 -5 15 9 41
-5 41 -21 0 -10 7 -14 20 -10 22 6 80 -13 80 -25 0 -4 6 -5 14 -2 8 3 25 0 38
-7 13 -7 30 -14 38 -15 8 -2 16 -8 18 -13 2 -6 18 -11 36 -11 18 0 55 -7 82
-15 28 -8 96 -16 159 -17 l110 -2 -85 -6 -85 -7 103 1 c79 1 105 5 113 16 8
13 10 13 19 0 7 -11 10 -12 10 -2 0 8 8 12 17 10 10 -2 26 5 35 14 20 20 24
36 6 20 -27 -22 -139 -35 -251 -29 -215 10 -461 99 -757 274 l-84 50 -1 76 c0
91 -14 111 -118 163 l-68 35 7 107 c4 59 9 136 13 172 l6 65 51 6 c252 31 453
262 454 520 0 230 -147 435 -365 507 -72 24 -147 30 -237 20z m175 -103 c79
-20 131 -49 188 -102 189 -177 189 -459 0 -636 -194 -181 -499 -145 -651 78
-92 135 -95 331 -6 470 105 162 289 237 469 190z"/>
<path d="M7489 6424 c-79 -51 -78 -171 1 -218 66 -38 180 0 171 57 0 4 4 7 9
7 6 0 10 22 10 48 0 38 -6 55 -28 81 -25 30 -35 35 -83 38 -39 3 -61 -1 -80
-13z m144 -27 c18 -18 33 -44 34 -58 2 -37 -6 -69 -18 -69 -13 0 -43 -29 -37
-36 3 -2 11 2 18 11 7 8 17 15 23 15 5 0 2 -9 -7 -19 -15 -17 -27 -19 -70 -14
-28 3 -55 11 -59 17 -6 7 -7 6 -4 -4 2 -10 19 -16 45 -18 50 -4 57 -22 8 -22
-71 0 -126 50 -126 114 0 49 15 79 29 58 6 -11 10 -10 16 5 5 10 7 22 6 27 -4
16 22 26 66 26 35 0 48 -6 76 -33z m-143 -1 c0 -3 -4 -8 -10 -11 -5 -3 -10 -1
-10 4 0 6 5 11 10 11 6 0 10 -2 10 -4z"/>
<path d="M7625 6370 c3 -5 8 -10 11 -10 2 0 4 5 4 10 0 6 -5 10 -11 10 -5 0
-7 -4 -4 -10z"/>
<path d="M8385 6365 c-30 -30 -32 -64 -4 -99 27 -34 71 -35 104 -1 34 33 33
77 -1 104 -35 28 -69 26 -99 -4z m97 -4 c4 -3 10 -20 13 -36 9 -43 -26 -79
-68 -71 -38 8 -44 13 -52 48 -5 21 -1 33 20 53 20 21 32 25 53 20 15 -3 30
-10 34 -14z"/>
<path d="M8532 5459 c101 -24 234 -125 260 -199 5 -17 16 -30 23 -30 7 0 22
-3 32 -6 10 -4 5 5 -14 23 -18 16 -33 35 -33 41 0 7 -4 12 -10 12 -5 0 -10 5
-10 11 0 5 5 7 10 4 6 -3 10 -1 10 5 0 6 -8 10 -17 8 -12 -2 -17 3 -15 13 1 8
-10 26 -25 40 -26 24 -24 11 6 -26 9 -11 1 -7 -16 9 -26 23 -30 33 -22 47 5
11 15 19 20 19 28 0 149 -34 149 -42 0 -5 4 -7 9 -4 4 3 17 -1 27 -9 10 -8 28
-15 39 -15 20 -1 20 -1 1 -15 -11 -8 -15 -15 -10 -15 6 0 15 5 21 11 8 8 17 7
33 -4 16 -11 18 -16 8 -21 -7 -3 -3 -4 10 -2 16 3 29 -5 46 -27 14 -17 28 -28
33 -24 12 13 -57 65 -142 107 -71 35 -108 47 -230 76 -16 4 -53 8 -82 8 -28 1
-49 4 -47 7 2 4 -20 7 -49 7 -51 0 -52 0 -15 -9z m166 -18 c17 -1 15 -18 -4
-25 -8 -3 -31 2 -51 13 l-36 18 39 -3 c21 -1 45 -3 52 -3z"/>
<path d="M8776 5368 c3 -4 9 -8 15 -8 5 0 9 4 9 8 0 5 -7 9 -15 9 -8 0 -12 -4
-9 -9z"/>
<path d="M8880 5360 c0 -4 9 -10 20 -13 11 -3 20 -2 20 3 0 4 -9 10 -20 13
-11 3 -20 2 -20 -3z"/>
<path d="M7435 5330 c-3 -5 -1 -10 4 -10 6 0 11 5 11 10 0 6 -2 10 -4 10 -3 0
-8 -4 -11 -10z"/>
<path d="M7488 5313 c7 -3 16 -2 19 1 4 3 -2 6 -13 5 -11 0 -14 -3 -6 -6z"/>
<path d="M8928 5313 c7 -3 16 -2 19 1 4 3 -2 6 -13 5 -11 0 -14 -3 -6 -6z"/>
<path d="M7535 5280 c3 -5 8 -10 11 -10 2 0 4 5 4 10 0 6 -5 10 -11 10 -5 0
-7 -4 -4 -10z"/>
<path d="M7735 5260 c3 -5 8 -10 11 -10 2 0 4 5 4 10 0 6 -5 10 -11 10 -5 0
-7 -4 -4 -10z"/>
<path d="M7316 5251 c-3 -5 5 -8 18 -7 13 0 22 4 19 9 -6 10 -31 9 -37 -2z"/>
<path d="M7556 5244 c-5 -14 -4 -15 8 -5 8 7 21 9 27 5 8 -4 9 -3 5 4 -10 17
-33 15 -40 -4z"/>
<path d="M7700 5251 c0 -5 7 -12 16 -15 24 -9 27 -7 10 9 -17 17 -26 19 -26 6z"/>
<path d="M9100 5242 c-13 -14 -12 -15 2 -9 13 4 22 -5 39 -40 12 -25 23 -60
25 -77 5 -63 7 -152 4 -181 -3 -25 -4 -23 -10 15 l-7 45 -1 -42 c-1 -24 -6
-43 -12 -43 -5 0 -10 -5 -10 -11 0 -8 5 -7 16 2 13 11 14 9 8 -16 -5 -18 -3
-26 4 -22 20 13 35 109 29 193 -4 60 -13 95 -31 131 -38 72 -39 73 -56 55z"/>
<path d="M6610 5178 c-77 -52 -237 -205 -260 -249 -12 -21 -11 -22 2 -12 8 7
18 9 22 5 4 -4 7 -2 6 3 -7 34 30 76 60 68 11 -3 20 0 20 6 0 6 -8 8 -17 4
-16 -6 -16 -4 1 16 15 16 22 19 28 9 6 -9 7 -6 4 7 -6 21 14 41 96 95 21 14
38 28 38 32 0 5 17 6 38 3 29 -4 33 -3 19 5 -9 6 -23 8 -30 4 -9 -5 -9 -4 -1
5 8 9 18 9 38 1 35 -13 46 -13 46 1 0 5 -4 8 -9 5 -13 -8 -42 4 -35 15 3 5 16
7 29 5 14 -3 27 0 30 5 4 5 11 9 17 9 6 0 3 -10 -8 -22 -10 -13 -12 -17 -4
-10 17 14 34 16 25 2 -3 -5 0 -7 9 -4 19 7 28 -22 25 -88 -3 -66 -41 -145 -75
-158 -14 -6 -27 -17 -30 -25 -4 -10 -13 -13 -24 -10 -10 3 -21 1 -25 -4 -4 -7
1 -8 12 -4 17 6 17 5 0 -13 -15 -17 -19 -17 -28 -4 -9 13 -10 13 -6 -2 4 -12
-3 -19 -24 -27 -23 -8 -29 -8 -26 2 2 6 11 11 20 11 9 -1 14 3 10 9 -3 5 2 16
12 24 11 7 14 13 8 13 -12 0 -63 -49 -63 -61 0 -4 5 -11 10 -14 16 -10 12 -28
-5 -22 -15 6 -28 -7 -32 -32 -1 -7 -13 -26 -27 -40 -14 -15 -26 -33 -26 -41 0
-8 7 -4 16 10 32 48 90 103 169 162 95 71 117 97 139 162 21 62 13 126 -21
167 -38 45 -80 39 -173 -23z"/>
<path d="M7315 5220 c-3 -5 -1 -10 4 -10 6 0 11 5 11 10 0 6 -2 10 -4 10 -3 0
-8 -4 -11 -10z"/>
<path d="M8920 5220 c8 -5 11 -12 7 -16 -3 -4 -13 -1 -21 6 -9 6 -21 10 -28 8
-7 -3 2 -13 20 -23 18 -11 45 -38 60 -60 25 -36 27 -48 27 -133 0 -88 1 -92
14 -60 21 53 10 150 -23 189 -16 19 -24 38 -21 49 6 19 -18 50 -38 50 -7 0 -6
-4 3 -10z m30 -30 c0 -5 -4 -10 -10 -10 -5 0 -10 5 -10 10 0 6 5 10 10 10 6 0
10 -4 10 -10z"/>
<path d="M7267 5152 c-18 -19 -22 -49 -9 -68 4 -6 48 -32 97 -59 50 -26 92
-49 94 -51 2 -2 -2 -87 -9 -189 -11 -173 -11 -188 6 -206 21 -24 46 -24 72 -1
18 15 22 36 31 170 6 84 11 161 11 172 0 11 6 20 13 20 34 0 92 24 113 47 l24
26 23 -21 c81 -75 441 -267 603 -321 119 -40 194 -51 348 -51 110 0 127 2 122
15 -3 9 0 15 9 15 8 0 15 -4 15 -10 0 -5 8 -10 17 -10 14 0 15 2 4 13 -7 7
-39 12 -81 12 -77 0 -82 -6 -12 -16 26 -4 -16 -5 -93 -3 -200 7 -195 6 -182
24 10 13 10 13 -5 2 -20 -16 -61 -9 -125 19 -23 11 -49 19 -57 19 -8 0 -27 5
-41 12 -19 8 -22 14 -13 20 8 6 4 7 -11 3 -16 -5 -21 -4 -17 4 4 6 1 9 -7 5
-8 -3 -44 10 -80 28 l-66 34 42 1 c30 2 37 -1 27 -7 -8 -5 -10 -10 -5 -10 6 0
16 4 24 9 11 7 9 10 -9 16 -32 10 -89 12 -84 3 8 -12 -4 -10 -36 7 -20 10 -28
21 -25 34 2 11 -3 25 -11 32 -9 8 -14 8 -14 1 0 -7 -7 -9 -17 -5 -11 4 -14 3
-9 -6 4 -6 17 -9 29 -6 12 2 16 2 9 -1 -6 -3 -10 -10 -6 -15 9 -15 -6 -10 -31
10 -17 13 -21 21 -13 29 8 8 6 15 -5 26 -20 21 -33 21 -17 1 11 -13 11 -18 0
-28 -10 -10 -11 -9 -5 2 6 11 4 13 -8 8 -9 -3 -20 0 -24 7 -5 6 -23 18 -41 25
-18 8 -35 18 -38 23 -4 6 4 5 16 -2 12 -6 24 -9 28 -6 3 3 -1 6 -8 6 -9 0 -7
7 6 23 19 22 19 22 -2 5 -22 -19 -39 -24 -30 -9 3 4 -5 6 -17 4 -13 -3 -32 4
-46 16 -30 26 -36 26 -59 1 -12 -13 -26 -18 -38 -14 -14 4 -16 3 -5 -4 11 -8
9 -11 -8 -17 -55 -17 -71 -16 -81 7 -10 21 -10 21 -5 -4 3 -17 1 -28 -5 -28
-6 0 -8 5 -4 11 4 7 0 9 -14 5 -16 -5 -21 -2 -25 16 l-4 23 -2 -23 c0 -13 -5
-21 -11 -17 -5 3 -7 12 -3 21 3 8 2 14 -3 12 -14 -5 -133 55 -128 63 2 4 0 10
-6 14 -5 3 -10 1 -10 -5 0 -15 -56 16 -64 35 -10 27 -7 42 5 25 9 -12 10 -12
5 4 -4 12 0 24 11 32 10 7 13 14 7 14 -6 0 -18 -8 -27 -18z"/>
<path d="M9126 5155 c-3 -9 -6 -22 -5 -28 0 -7 5 -1 10 12 5 13 8 26 5 28 -2
2 -6 -3 -10 -12z"/>
<path d="M6698 5153 c6 -2 18 -2 25 0 6 3 1 5 -13 5 -14 0 -19 -2 -12 -5z"/>
<path d="M6540 5090 c-9 -6 -10 -10 -3 -10 6 0 15 5 18 10 8 12 4 12 -15 0z"/>
<path d="M6743 5063 c9 -2 17 -14 17 -26 1 -20 2 -20 11 -4 13 22 3 37 -24 36
-17 -1 -18 -2 -4 -6z"/>
<path d="M7372 5062 c-9 -6 -6 -12 13 -22 14 -7 28 -10 32 -7 3 4 -1 7 -10 7
-9 0 -19 5 -23 11 -4 8 1 9 17 4 19 -5 21 -4 9 4 -18 13 -21 13 -38 3z"/>
<path d="M7695 5062 c-17 -12 -18 -42 -1 -36 8 3 14 14 13 25 -1 10 -1 19 -2
19 0 0 -4 -4 -10 -8z"/>
<path d="M7725 5060 c-4 -6 3 -10 14 -10 25 0 27 6 6 13 -8 4 -17 2 -20 -3z"/>
<path d="M6720 5030 c0 -5 5 -10 10 -10 6 0 10 5 10 10 0 6 -4 10 -10 10 -5 0
-10 -4 -10 -10z"/>
<path d="M9020 5000 c0 -11 4 -20 9 -20 5 0 7 9 4 20 -3 11 -7 20 -9 20 -2 0
-4 -9 -4 -20z"/>
<path d="M6720 4988 c0 -4 6 -8 13 -8 8 0 7 -3 -3 -10 -8 -5 -11 -12 -7 -16 9
-10 17 -1 21 23 3 12 -1 20 -10 20 -8 0 -14 -4 -14 -9z"/>
<path d="M6640 4979 c0 -5 5 -7 10 -4 6 3 10 8 10 11 0 2 -4 4 -10 4 -5 0 -10
-5 -10 -11z"/>
<path d="M7510 4980 c0 -5 5 -10 10 -10 6 0 10 5 10 10 0 6 -4 10 -10 10 -5 0
-10 -4 -10 -10z"/>
<path d="M7597 4979 c7 -7 15 -10 18 -7 3 3 -2 9 -12 12 -14 6 -15 5 -6 -5z"/>
<path d="M9121 4954 c0 -11 3 -14 6 -6 3 7 2 16 -1 19 -3 4 -6 -2 -5 -13z"/>
<path d="M9010 4940 c0 -5 5 -10 10 -10 6 0 10 5 10 10 0 6 -4 10 -10 10 -5 0
-10 -4 -10 -10z"/>
<path d="M6565 4899 c-4 -6 -5 -12 -2 -15 2 -3 7 2 10 11 7 17 1 20 -8 4z"/>
<path d="M6302 4863 c-29 -41 -102 -186 -102 -203 -1 -8 -7 -26 -14 -39 -8
-14 -12 -31 -9 -38 3 -8 20 28 37 79 20 61 36 92 44 90 8 -1 11 2 8 7 -10 16
33 79 52 76 9 -1 11 0 5 2 -17 6 -16 18 3 37 8 9 11 16 5 16 -5 0 -18 -12 -29
-27z"/>
<path d="M8927 4861 l-28 -27 27 1 c22 0 27 5 30 28 1 15 2 27 1 26 -1 0 -15
-12 -30 -28z"/>
<path d="M9123 4849 c1 -34 -33 -84 -58 -84 -5 0 -10 -7 -10 -15 0 -8 -18 -24
-40 -36 -22 -13 -45 -27 -52 -33 -7 -6 -18 -11 -24 -11 -7 0 -9 -3 -6 -7 12
-11 114 47 149 85 45 48 72 91 64 99 -3 3 -7 0 -7 -8 -1 -8 -5 0 -9 16 l-8 30
1 -36z"/>
<path d="M8159 4833 c-12 -16 -12 -17 1 -7 8 6 22 14 30 17 13 5 12 6 -1 6 -9
1 -23 -7 -30 -16z"/>
<path d="M8267 4839 c7 -7 15 -10 18 -7 3 3 -2 9 -12 12 -14 6 -15 5 -6 -5z"/>
<path d="M6515 4819 c-11 -16 -1 -19 13 -3 7 8 8 14 3 14 -5 0 -13 -5 -16 -11z"/>
<path d="M9050 4794 c0 -14 3 -14 15 -4 8 7 15 14 15 16 0 2 -7 4 -15 4 -8 0
-15 -7 -15 -16z"/>
<path d="M6481 4774 c0 -11 3 -14 6 -6 3 7 2 16 -1 19 -3 4 -6 -2 -5 -13z"/>
<path d="M6506 4774 c-5 -14 -4 -15 9 -4 17 14 19 20 6 20 -5 0 -12 -7 -15
-16z"/>
<path d="M8428 4783 c6 -2 18 -2 25 0 6 3 1 5 -13 5 -14 0 -19 -2 -12 -5z"/>
<path d="M6280 4769 c0 -15 18 -19 23 -6 3 8 -1 14 -9 14 -8 0 -14 -4 -14 -8z"/>
<path d="M8378 4773 c6 -2 18 -2 25 0 6 3 1 5 -13 5 -14 0 -19 -2 -12 -5z"/>
<path d="M8490 4760 c-20 -6 -21 -8 -5 -8 11 0 29 3 40 8 25 11 -1 11 -35 0z"/>
<path d="M8818 4753 c7 -3 16 -2 19 1 4 3 -2 6 -13 5 -11 0 -14 -3 -6 -6z"/>
<path d="M8970 4740 c13 -9 13 -11 0 -19 -8 -6 -12 -12 -10 -15 3 -2 14 2 25
10 17 13 18 16 5 24 -8 5 -19 10 -25 10 -5 0 -3 -5 5 -10z"/>
<path d="M8272 4731 c-11 -6 -10 -10 4 -15 9 -3 19 -4 22 -1 3 3 -1 5 -9 5
-11 0 -11 2 1 10 8 5 11 10 5 10 -5 0 -16 -4 -23 -9z"/>
<path d="M8361 4729 c-14 -5 -32 -7 -40 -4 -12 5 -13 3 -5 -5 13 -13 84 -3 84
11 0 11 -8 11 -39 -2z"/>
<path d="M8380 4690 c0 -5 5 -10 10 -10 6 0 10 5 10 10 0 6 -4 10 -10 10 -5 0
-10 -4 -10 -10z"/>
<path d="M6438 4651 c-7 -10 -17 -19 -23 -20 -5 -1 -10 -9 -11 -19 -2 -35 -16
-53 -35 -47 -19 6 -28 -10 -10 -17 12 -4 -14 -81 -29 -86 -5 -2 -7 -8 -4 -13
3 -6 -2 -21 -11 -36 -11 -16 -13 -29 -7 -35 6 -6 12 0 16 17 4 14 25 65 48
113 23 48 40 93 39 101 -1 7 2 11 6 8 5 -3 17 7 27 24 19 32 15 40 -6 10z"/>
<path d="M8539 4659 c-10 -6 -7 -9 14 -9 29 0 35 5 14 13 -8 3 -20 1 -28 -4z"/>
<path d="M8630 4660 c8 -5 20 -10 25 -10 6 0 3 5 -5 10 -8 5 -19 10 -25 10 -5
0 -3 -5 5 -10z"/>
<path d="M8874 4648 c10 -5 23 -5 34 1 14 8 10 10 -16 9 -26 -1 -30 -3 -18
-10z"/>
<path d="M6203 4582 c-1 -9 -4 -28 -7 -42 -4 -17 -1 -14 9 9 9 19 12 38 8 42
-5 5 -9 1 -10 -9z"/>
<path d="M6147 4490 c-27 -121 -47 -260 -47 -330 0 -71 -5 -83 -35 -88 -11 -2
-27 -10 -35 -18 -13 -13 -13 -14 5 -8 11 4 26 12 34 18 12 9 13 7 8 -9 -6 -16
-3 -15 13 5 14 18 20 40 20 82 0 68 35 310 50 355 7 18 10 40 8 50 -2 10 -12
-16 -21 -57z"/>
<path d="M6151 4378 c0 -9 -4 -25 -7 -35 -5 -17 -5 -17 6 0 6 10 9 25 7 35 -4
15 -5 15 -6 0z"/>
<path d="M6272 4350 c-7 -11 -12 -28 -12 -37 1 -12 6 -7 15 12 18 40 18 10 0
-40 -10 -29 -14 -34 -15 -17 0 13 -4 20 -10 17 -7 -4 -7 -12 0 -25 6 -12 6
-37 -1 -75 -14 -79 -9 -120 16 -121 53 -1 128 -71 145 -135 6 -23 14 -38 17
-35 3 3 -2 26 -11 50 -23 60 -85 123 -130 132 -26 4 -36 11 -36 24 0 25 26
144 43 202 11 36 12 50 3 57 -8 7 -16 4 -24 -9z"/>
<path d="M6152 4215 c0 -16 2 -22 5 -12 2 9 2 23 0 30 -3 6 -5 -1 -5 -18z"/>
<path d="M6120 4083 c0 -16 5 -35 10 -43 9 -13 11 -13 20 0 5 8 10 20 10 25 0
6 -4 4 -9 -4 -12 -19 -24 3 -16 29 4 11 2 20 -4 20 -6 0 -11 -12 -11 -27z"/>
<path d="M5962 3975 c-6 -14 -8 -25 -4 -25 4 0 12 11 19 25 6 14 8 25 4 25 -4
0 -13 -11 -19 -25z"/>
<path d="M6357 3975 c10 -13 22 -25 26 -25 4 0 0 11 -10 25 -10 13 -22 25 -26
25 -4 0 0 -11 10 -25z"/>
<path d="M5991 3973 c-1 -6 -4 -20 -7 -30 -5 -17 -5 -17 6 0 6 10 9 23 6 30
-3 9 -5 9 -5 0z"/>
<path d="M5938 3893 c-3 -21 -1 -51 3 -68 5 -22 7 -13 8 38 1 74 -4 88 -11 30z"/>
<path d="M6264 3912 c-15 -10 -25 -70 -14 -77 6 -4 10 7 10 22 0 16 5 34 12
41 14 14 7 24 -8 14z"/>
<path d="M6305 3890 c3 -5 8 -10 11 -10 2 0 4 5 4 10 0 6 -5 10 -11 10 -5 0
-7 -4 -4 -10z"/>
<path d="M6276 3882 c-3 -5 -1 -22 4 -38 8 -29 8 -29 9 9 1 36 -3 45 -13 29z"/>
<path d="M6432 3842 c-1 -24 -7 -52 -13 -63 -6 -11 -8 -25 -6 -32 9 -24 28 48
24 92 l-3 46 -2 -43z"/>
<path d="M6365 3831 c-3 -10 -2 -28 3 -40 8 -22 9 -22 23 -5 11 15 12 16 0 9
-11 -6 -13 -2 -8 23 7 34 -8 45 -18 13z"/>
<path d="M5960 3808 c0 -9 -4 -18 -8 -20 -5 -1 -7 -20 -4 -40 5 -47 41 -75 73
-57 12 6 30 9 40 6 10 -3 19 -1 19 4 0 12 -53 12 -65 0 -6 -6 -16 -5 -27 3
-20 14 -36 86 -19 86 6 0 11 -5 11 -12 0 -6 3 -9 6 -5 3 3 -1 16 -10 29 -12
17 -16 19 -16 6z"/>
<path d="M6278 3753 c5 -83 9 -90 11 -20 0 37 -2 67 -7 67 -4 0 -6 -21 -4 -47z"/>
<path d="M6380 3751 c0 -5 5 -13 10 -16 6 -3 10 -2 10 4 0 5 -4 13 -10 16 -5
3 -10 2 -10 -4z"/>
<path d="M6252 3655 c0 -16 2 -22 5 -12 2 9 2 23 0 30 -3 6 -5 -1 -5 -18z"/>
<path d="M6930 3640 c0 -5 4 -10 8 -10 4 0 7 -17 6 -37 l-3 -38 7 35 c6 30 11
35 42 40 19 3 66 4 104 2 l68 -4 -5 -71 c-8 -90 0 -76 11 21 l8 72 -123 0
c-75 0 -123 -4 -123 -10z"/>
<path d="M8271 3593 c4 -32 8 -85 8 -117 1 -33 4 -56 8 -53 11 12 13 121 2
128 -6 4 -8 21 -3 45 6 32 8 35 15 19 8 -20 8 -20 8 0 1 19 7 20 92 17 l92 -3
-6 -62 c-4 -52 -4 -56 5 -27 5 19 8 49 6 67 -2 18 1 35 7 37 5 2 -46 5 -116 5
l-125 1 7 -57z"/>
<path d="M6191 3621 c-8 -5 -11 -16 -6 -30 12 -38 95 -24 95 17 0 10 -7 8 -26
-7 -15 -12 -33 -21 -40 -21 -17 0 -18 37 -1 43 6 3 8 6 2 6 -5 0 -16 -3 -24
-8z"/>
<path d="M6946 3523 c10 -40 14 -41 14 -5 0 18 -5 32 -10 32 -6 0 -8 -11 -4
-27z"/>
<path d="M6953 3410 c0 -36 2 -50 4 -32 2 17 2 47 0 65 -2 17 -4 3 -4 -33z"/>
<path d="M7136 3383 c-4 -49 -8 -108 -10 -132 -2 -28 -1 -39 5 -30 5 8 9 41
10 74 0 33 4 86 8 118 4 31 4 57 0 57 -4 0 -10 -39 -13 -87z"/>
<path d="M8481 3454 c0 -11 3 -14 6 -6 3 7 2 16 -1 19 -3 4 -6 -2 -5 -13z"/>
<path d="M8288 3296 c3 -83 5 -94 20 -89 10 4 12 8 4 11 -8 2 -12 31 -12 88 0
46 -3 84 -7 84 -5 0 -7 -42 -5 -94z"/>
<path d="M8438 3273 c-3 -21 -1 -39 4 -41 10 -4 10 -73 1 -138 l-8 -49 -5 55
c-3 30 -6 -9 -5 -87 0 -78 3 -136 6 -130 10 19 32 314 25 340 -3 13 -1 38 4
55 6 24 5 32 -5 32 -7 0 -15 -15 -17 -37z"/>
<path d="M6960 3218 c0 -7 5 -74 11 -148 5 -74 10 -152 11 -172 0 -21 4 -38 8
-38 11 0 18 46 10 62 -4 7 -11 79 -15 161 -4 81 -11 147 -16 147 -5 0 -9 -6
-9 -12z"/>
<path d="M7120 3157 c0 -25 -5 -49 -11 -52 -5 -4 -9 -32 -8 -63 1 -32 -2 -84
-5 -117 -4 -39 -3 -53 3 -40 11 25 35 304 27 312 -3 4 -6 -14 -6 -40z"/>
<path d="M8295 3180 c3 -6 8 -79 11 -162 3 -84 7 -155 10 -157 3 -3 3 70 2
162 -2 129 -6 167 -16 167 -7 0 -10 -5 -7 -10z"/>
<path d="M7002 3125 c0 -16 2 -22 5 -12 2 9 2 23 0 30 -3 6 -5 -1 -5 -18z"/>
<path d="M7022 3080 c0 -19 2 -27 5 -17 2 9 2 25 0 35 -3 9 -5 1 -5 -18z"/>
<path d="M7061 3015 c0 -11 4 -29 9 -40 8 -18 9 -18 9 5 0 14 -4 32 -9 40 -8
12 -10 12 -9 -5z"/>
<path d="M8402 3015 c0 -11 4 -33 8 -50 7 -27 8 -27 8 -5 0 14 -4 36 -8 50 -6
20 -8 21 -8 5z"/>
<path d="M7052 2940 c-2 -29 13 -58 25 -47 4 5 2 11 -4 15 -6 4 -13 18 -16 32
l-4 25 -1 -25z"/>
<path d="M7050 2855 c0 -8 5 -15 10 -15 6 0 10 7 10 15 0 8 -4 15 -10 15 -5 0
-10 -7 -10 -15z"/>
<path d="M7111 2861 c-22 -14 12 -19 124 -19 55 1 111 -2 125 -6 19 -5 21 -5
9 3 -15 10 -166 31 -219 31 -14 0 -31 -4 -39 -9z m72 -8 c-13 -2 -33 -2 -45 0
-13 2 -3 4 22 4 25 0 35 -2 23 -4z"/>
<path d="M8460 2860 c-16 -5 11 -8 78 -9 75 -1 101 -4 96 -13 -4 -7 -3 -8 4
-4 26 16 83 -7 132 -54 58 -55 68 -50 13 6 -49 48 -83 61 -190 74 -99 11 -98
11 -133 0z"/>
<path d="M8400 2852 c0 -12 19 -26 26 -19 2 2 -2 10 -11 17 -9 8 -15 8 -15 2z"/>
<path d="M6967 2773 c-4 -38 -7 -87 -7 -111 l0 -42 242 2 c186 2 242 6 244 16
1 7 0 8 -3 2 -3 -6 -87 -10 -233 -10 l-227 0 -2 68 c0 37 3 84 8 105 7 28 6
37 -4 37 -8 0 -14 -24 -18 -67z"/>
<path d="M8300 2807 c0 -19 -3 -68 -6 -111 l-7 -76 258 2 c200 2 259 6 261 16
1 7 0 8 -3 2 -6 -12 -471 -14 -490 -2 -10 6 -11 32 -5 105 4 53 4 97 0 97 -4
0 -8 -15 -8 -33z"/>
<path d="M7011 2814 c0 -11 3 -14 6 -6 3 7 2 16 -1 19 -3 4 -6 -2 -5 -13z"/>
<path d="M7390 2816 c0 -8 9 -18 21 -21 34 -11 58 -42 71 -90 7 -25 18 -45 25
-45 9 0 7 13 -8 48 -22 52 -40 74 -81 104 -23 16 -28 17 -28 4z"/>
<path d="M8724 2781 c0 -11 5 -17 13 -14 10 4 11 9 2 19 -15 18 -15 18 -15 -5z"/>
<path d="M7001 2764 c0 -11 3 -14 6 -6 3 7 2 16 -1 19 -3 4 -6 -2 -5 -13z"/>
<path d="M7031 2764 c0 -11 3 -14 6 -6 3 7 2 16 -1 19 -3 4 -6 -2 -5 -13z"/>
<path d="M7451 2714 c0 -11 3 -14 6 -6 3 7 2 16 -1 19 -3 4 -6 -2 -5 -13z"/>
<path d="M8824 2702 c5 -14 1 -24 -11 -31 -16 -9 -15 -10 8 -11 23 0 26 3 21
25 -2 14 -9 28 -14 31 -6 4 -8 -2 -4 -14z"/>
<path d="M7496 2635 c4 -8 10 -15 15 -15 5 0 9 7 9 15 0 8 -7 15 -15 15 -9 0
-12 -6 -9 -15z"/>
<path d="M8833 2643 c-18 -7 -16 -23 2 -23 8 0 15 7 15 15 0 8 -1 15 -2 14 -2
0 -9 -3 -15 -6z"/>
</g>
</svg>
