<?xml version="1.0" encoding="iso-8859-1"?>
<!-- Generator: Adobe Illustrator 21.0.0, SVG Export Plug-In . SVG Version: 6.00 Build 0)  -->
<svg xmlns="http://www.w3.org/2000/svg" xmlns:xlink="http://www.w3.org/1999/xlink" version="1.1" id="Capa_1" x="0px" y="0px" viewBox="0 0 512 512" style="enable-background:new 0 0 512 512;" xml:space="preserve" width="512" height="512">
<g>
	<path d="M57,410v27c0,41.355,33.645,75,75,75h248c41.355,0,75-33.645,75-75v-27H57z"/>
	<g>
		<path d="M400.997,97H111.003C79.836,106.104,57,134.932,57,169v27h398v-27C455,134.932,432.164,106.104,400.997,97z"/>
		<path d="M395,67V15c0-8.284-6.716-15-15-15H132c-8.284,0-15,6.716-15,15v52H395z"/>
	</g>
	<path d="M57,226v154h398V226H57z M349,327c0,8.284-6.716,15-15,15s-15-6.716-15-15v16c0,8.284-6.716,15-15,15s-15-6.716-15-15v-25   h-70v25c0,8.284-6.716,15-15,15s-15-6.716-15-15v-16c0,8.284-6.716,15-15,15s-15-6.716-15-15v-46c0-8.284,6.716-15,15-15   s15,6.716,15,15v-16c0-8.284,6.716-15,15-15s15,6.716,15,15v23h70v-23c0-8.284,6.716-15,15-15s15,6.716,15,15v16   c0-8.284,6.716-15,15-15s15,6.716,15,15V327z"/>
</g>















</svg>
